<svg width="19" height="20" viewBox="0 0 19 20" fill="none" xmlns="http://www.w3.org/2000/svg">
<path d="M13.4375 12.8055C12.5935 13.7136 11.5224 14.7972 10.2225 16.0573C10.2224 16.0575 10.2223 16.0576 10.2221 16.0577L9.44712 16.8053L8.67211 16.0577C8.67198 16.0576 8.67186 16.0575 8.67173 16.0573C7.37187 14.7972 6.30074 13.7136 5.45675 12.8055C4.61509 11.8999 3.95432 11.0961 3.46888 10.393C2.98324 9.68965 2.65801 9.06299 2.47733 8.51113C2.29358 7.94991 2.20203 7.3774 2.20203 6.79171C2.20203 5.59966 2.56918 4.63481 3.28812 3.86126C4.00508 3.08986 4.8849 2.70837 5.96183 2.70837C6.55399 2.70837 7.11603 2.84241 7.65384 3.11327C8.19267 3.38465 8.65912 3.76749 9.05478 4.26832L9.44712 4.76496L9.83946 4.26832C10.2351 3.76749 10.7016 3.38465 11.2404 3.11327C11.7782 2.84241 12.3403 2.70837 12.9324 2.70837C14.0093 2.70837 14.8892 3.08986 15.6061 3.86126C16.3251 4.63481 16.6922 5.59966 16.6922 6.79171C16.6922 7.3774 16.6007 7.94991 16.4169 8.51113C16.2362 9.06299 15.911 9.68965 15.4254 10.393C14.9399 11.0961 14.2792 11.8999 13.4375 12.8055ZM9.10013 15.61L9.44712 15.9445L9.79411 15.61C11.0369 14.4122 12.0632 13.3815 12.8713 12.519C13.6793 11.6567 14.3262 10.8978 14.8068 10.2442C15.2871 9.59099 15.6387 8.98595 15.8416 8.43253C16.0409 7.88879 16.1432 7.34107 16.1432 6.79171C16.1432 5.84564 15.846 5.02551 15.2349 4.36798C14.6217 3.70823 13.8425 3.37504 12.9324 3.37504C12.2168 3.37504 11.5546 3.59443 10.9576 4.01997C10.4641 4.37176 10.0901 4.81069 9.84575 5.33337H9.0485C8.80417 4.81069 8.43013 4.37176 7.93661 4.01997C7.33962 3.59443 6.67746 3.37504 5.96183 3.37504C5.0517 3.37504 4.2725 3.70823 3.65931 4.36798C3.0482 5.02551 2.75105 5.84564 2.75105 6.79171C2.75105 7.34107 2.85337 7.88879 3.05267 8.43253C3.25551 8.98595 3.60713 9.59099 4.08745 10.2442C4.56808 10.8978 5.21497 11.6567 6.02294 12.519C6.83108 13.3815 7.85736 14.4122 9.10013 15.61Z" stroke="#C6492A"/>
</svg>
