<svg width="80" height="14" viewBox="0 0 80 14" fill="none" xmlns="http://www.w3.org/2000/svg">
<path d="M6.45738 5.8883C2.84068 5.44621 1.86243 4.81599 1.86243 3.70605C1.86243 2.40329 2.97237 1.42975 6.20811 1.42975C8.27748 1.42975 10.2293 2.13992 11.4521 2.96296L12.0071 1.47207C10.629 0.611404 8.31511 0 6.20811 0C2.4174 0 0.291593 1.39682 0.291593 3.73427C0.291593 6.07172 2.39859 6.98883 6.35861 7.44973C9.9565 7.87301 11.2028 8.31041 11.2028 9.72604C11.2028 11.485 9.42034 12.4256 6.37743 12.4256C4.08231 12.4256 2.18695 11.5273 0.691357 10.4174L0 11.8895C1.70253 13.1123 4.11523 13.8601 6.39154 13.8601C10.3327 13.8601 12.7643 12.1764 12.7643 9.65079C12.7643 7.12522 10.8501 6.43386 6.44797 5.89771L6.45738 5.8883Z" fill="#1D1D1B"/>
<path d="M49.7355 11.8235L44.2611 0.225586H42.0601V13.6248H43.5886V2.23382L48.9877 13.6248H50.4222L55.8026 2.34669V13.6248H57.3311V0.225586H55.1865L49.7355 11.8235Z" fill="#1D1D1B"/>
<path d="M27.6075 0.225586H26.079V8.21618L19.0854 12.3267L19.8615 13.6483L26.8409 9.54246L33.825 13.6483L34.601 12.3267L27.6075 8.21618V0.225586Z" fill="#1D1D1B"/>
<path d="M79.2239 0.197754L72.2398 4.30357L65.2604 0.197754L64.4844 1.51933L71.4732 5.62985V13.6251H73.0064V5.62985L79.9999 1.51933L79.2239 0.197754Z" fill="#1D1D1B"/>
</svg>
